<?xml version="1.0" encoding="utf-8"?>
<svg version="1.0" xmlns="http://www.w3.org/2000/svg" width="137px" height="178px" viewBox="0 0 137 178" preserveAspectRatio="xMidYMid meet">
<style>
    :root {
        --c0: #000;
        --c1: #ffcb32;
    }

    .c2 {
      filter: brightness(80%);
    }
</style>

 <g fill="#ffffff">
  <path d="M48.5 61.5 c-3.3 -3.3 -3.6 -11.9 -0.4 -15.9 1.8 -2.3 2.8 -2.6 8 -2.6 8.2 0 9.9 1.8 9.9 10.3 0 8.6 -1.9 10.7 -9.6 10.7 -4.5 0 -5.9 -0.4 -7.9 -2.5z"/>
  <path d="M29 58.1 c-0.5 -1.1 -1 -4.5 -1 -7.6 0 -8.3 1 -9.5 7.4 -9.5 7.1 0 7.9 1.1 7.4 10 -0.4 8.2 -1.1 9 -8 9 -3.7 0 -5 -0.4 -5.8 -1.9z"/>
 </g>
 <g fill="var(--c1)">
  <path d="M47.7 163 c-10.3 -1.5 -19.4 -3.4 -20.2 -4 -1 -0.8 -1.5 -3.2 -1.5 -7.1 0 -8.8 1.5 -9.9 13.1 -9.9 l9.1 0 -1.6 -2.5 c-2.4 -3.7 -2.2 -17.7 0.4 -23.4 2.4 -5.2 2.4 -5.1 0.5 -5.1 -1.3 0 -1.5 -1.8 -1.3 -12.7 l0.3 -12.7 5 -1.1 c4.9 -1.1 12.9 -4.7 13.8 -6.2 0.3 -0.5 -4.6 -0.6 -10.8 -0.4 -10.4 0.3 -11.8 0.1 -16.8 -2.2 -8.5 -3.9 -13.6 -12 -13.7 -22 0 -7.9 1.9 -13.6 6.2 -17.9 2.1 -2.1 3.8 -4.2 3.8 -4.8 0 -1.9 13.8 -5.3 20.1 -4.8 l6 0.4 4.7 -5.7 c4.8 -5.8 6.5 -6.9 11.5 -6.9 2.4 0 2.7 0.3 2.7 3.6 0 2.5 -0.9 4.8 -3.1 7.6 -3.6 4.4 -3.2 5.4 2.6 6.6 l3.9 0.8 1.4 8.4 c1.6 10 1.1 21 -1.1 24.3 -1.5 2.4 -1.5 2.4 2.3 3.6 2.1 0.6 6.4 3.4 9.4 6.2 5.2 4.7 5.8 5.8 12.5 22.8 l7.1 17.8 0 11.1 c0 15.3 -2.3 22.6 -9.4 29.7 -10.3 10.4 -21.9 11.7 -56.9 6.5z m13.3 -104.2 c1.1 -1.2 2 -2.7 1.9 -3.2 0 -0.6 -0.3 -0.5 -0.6 0.2 -0.2 0.6 -1.2 1.2 -2.2 1.2 -1.3 0 -1.6 -0.9 -1.6 -4 0 -4.1 1.1 -5 3.4 -2.7 1.1 1 1.2 0.8 0.3 -0.9 -2.2 -4.2 -8.1 -4.6 -11.1 -0.8 -2.8 3.5 -2.6 6.9 0.4 9.9 3 3.1 6.8 3.2 9.5 0.3z m-23.6 -2.4 c2 -0.8 2.1 -2.4 0.1 -2.4 -1 0 -1.4 -1 -1.3 -3.6 0.1 -2.9 0.5 -3.5 2 -3.1 2.1 0.6 2.3 -0.4 0.6 -2.1 -3.3 -3.3 -7.8 -0.2 -7.8 5.3 0 5.2 2.4 7.4 6.4 5.9z"/>
 </g>
 <g fill="var(--c0)">
  <path d="M49.6 167 c-11.6 -1.7 -20.8 -3.6 -22.2 -4.5 -6.4 -4.2 -7.1 -14.1 -1.4 -20 1.8 -1.9 4.6 -3.7 6.1 -4 1.6 -0.4 3.2 -1.2 3.6 -1.8 0.3 -0.6 0.6 -13.9 0.5 -29.6 l-0.2 -28.4 -3.5 -2.4 c-7.5 -5.1 -13.3 -17.6 -12.1 -26.1 0.8 -5.7 4.9 -14.5 8 -16.9 1.6 -1.3 2.6 -3.7 3.5 -8.3 0.6 -3.6 1.4 -7.7 1.7 -9.2 0.9 -4.4 5.1 -7.8 9.6 -7.8 6 0 9.1 2.2 12.8 9.1 l3.3 6.2 1.9 -2.4 c7.5 -9.4 11 -11.4 17.5 -9.7 5.4 1.4 7.3 5 7.3 13.5 0 4.1 0.7 12.8 1.5 19.4 1.5 11.4 1.4 14.3 -0.9 20 -0.5 1.2 0.5 2.3 3.7 4.2 8.8 5.2 12.6 10.8 20.2 29.8 6.6 16.6 6.9 17.8 7.3 27.1 0.8 19.9 -6.9 33.9 -22.7 41.5 -8.2 3.9 -19.8 4 -45.5 0.3z m41.1 -6.2 c13.1 -4.9 20.3 -17 20.3 -34 0 -7.7 -0.4 -9 -7 -25.8 -6.5 -16.4 -7.5 -18.2 -12.1 -22.5 -2.7 -2.5 -6.5 -5.3 -8.4 -6.1 -4.4 -1.8 -8.5 -1.8 -8.5 0 0 0.9 -0.7 1.2 -2 0.9 -2.7 -0.7 -2.5 -3.2 0.4 -4.3 3 -1.1 6.5 -5.9 7.8 -10.7 1.5 -5.6 -1 -22.4 -3.4 -23.1 -1.5 -0.4 -1.8 -1.5 -1.8 -7.1 l-0.1 -6.6 -3.9 4.4 c-5.1 5.6 -5.1 4.3 0 -2.5 4.5 -6 4.7 -6.4 2.3 -5.7 -1 0.3 -4.2 3.4 -7.2 7 -3.2 3.9 -5.9 6.2 -6.7 5.9 -0.8 -0.3 -3.6 -0.8 -6.3 -1.2 -4.6 -0.6 -5 -0.8 -7.1 -5.5 -1.3 -2.6 -2.7 -4.6 -3.1 -4.3 -0.4 0.2 -1.1 2.9 -1.5 6 -0.5 4.5 -1.1 5.8 -3 6.6 -1.3 0.6 -2.4 1.5 -2.4 2 0 0.4 -1.8 2.6 -3.9 4.7 -11.5 11.5 -4.2 32.5 12.4 35.5 3.9 0.7 4.1 1.1 2.2 6.4 -1.5 4 -1.7 8.9 -1.7 31.9 0 18.5 -0.4 28 -1.2 29.8 -1 2.2 -1.7 2.5 -6.5 2.5 -4 0 -5.8 0.5 -7.3 2 -2.3 2.3 -2.6 7.2 -0.5 9 1.9 1.6 36.8 6.7 46.7 6.9 5.7 0.1 9.3 -0.5 13.5 -2.1z"/>
  <path d="M39.2 60 c-1 -1.7 -1 -2.1 0.3 -2.6 0.8 -0.4 2.2 -0.4 3 0 1.3 0.5 1.3 0.9 0.3 2.6 -0.7 1.1 -1.5 2 -1.8 2 -0.3 0 -1.1 -0.9 -1.8 -2z"/>
  <path d="M56.4 54.5 c-1.2 -4.6 3.5 -7.5 5.6 -3.5 1.6 3 0.3 6 -2.5 6 -1.8 0 -2.6 -0.7 -3.1 -2.5z"/>
  <path d="M35.7 53.3 c-1.3 -1.2 -0.7 -5.4 0.9 -6 2.3 -0.8 3.8 1.2 3 4.1 -0.6 2.5 -2.5 3.4 -3.9 1.9z"/>
 </g>
 <g fill="var(--c1)" class="c2">
  <path d="M73.7 148.3 c-1.4 -1.4 -0.6 -2.1 3.4 -2.7 2.2 -0.4 6.3 -1.8 9.1 -3.2 2.7 -1.4 5.2 -2.3 5.5 -2.1 1 1 -1.8 4.6 -5.1 6.6 -3.2 2 -11.4 2.9 -12.9 1.4z"/>
  <path d="M48.3 145.7 c-4.7 -0.6 -8.3 -1.5 -8.3 -2.1 0.1 -0.6 0.7 -2.2 1.5 -3.6 1.1 -2 1.4 -8.1 1.5 -30.2 0 -22.4 0.3 -28.5 1.5 -31.5 l1.5 -3.8 8.3 0 c7.1 0 9.1 -0.4 13.5 -2.7 4 -2.1 5.8 -2.5 7.5 -1.8 1.2 0.5 1.6 0.9 1 0.9 -0.7 0.1 -1.3 0.7 -1.3 1.5 0 2.2 -7.1 9.6 -11.4 11.9 -2.3 1.1 -6.3 2.6 -9.1 3.2 l-5 1.1 -0.3 9.7 c-0.1 5.3 0 9.7 0.3 9.7 0.4 0 2.2 -1.2 4 -2.6 3.4 -2.6 13.9 -6.4 17.6 -6.4 3.4 0 2 1.6 -3.1 3.4 -6.6 2.4 -14.7 9.8 -17.6 16.1 -4.6 9.8 -2.1 20.9 5.7 25.3 3 1.7 3.9 3.3 1.7 3 -0.7 -0.1 -5 -0.6 -9.5 -1.1z"/>
  <path d="M73.5 34 c-0.3 -0.5 -0.8 -3.1 -1.2 -5.8 -0.5 -4.1 -0.2 -5.2 1.9 -7.7 3.7 -4.2 4.8 -2.6 4.8 6.6 0 7.7 -0.1 7.9 -2.4 7.9 -1.4 0 -2.8 -0.4 -3.1 -1z"/>
  <path d="M38 31.6 c0 -1.5 1.9 -12.5 2.6 -14.8 0.4 -1.2 1.5 -1.8 3.5 -1.8 2.6 0 3.2 0.7 6.4 7 3.2 6.4 3.3 7 1.6 7 -1.1 0 -4.7 0.9 -8 1.9 -4.4 1.4 -6.1 1.6 -6.1 0.7z"/>
 </g>
 <g fill="var(--c1)" class="c2">
  <path d="M87.8 145.2 c0.7 -0.5 1 -1.5 0.8 -2.3 -0.6 -1.4 4.1 -5.6 5.1 -4.6 0.7 0.8 -4.7 7.7 -6.1 7.7 -0.7 0 -0.6 -0.3 0.2 -0.8z"/>
  <path d="M48.4 95 l0.1 -7.5 4.5 -0.7 c5.8 -0.9 14.8 -5.6 15.6 -8 0.6 -1.9 -2.5 -5.4 -3.6 -4 -0.7 1 -6 0.9 -5.4 0 0.3 -0.4 1.3 -0.8 2.3 -0.8 1 0 3.9 -1.1 6.4 -2.5 3.6 -1.8 5.2 -2.2 6.9 -1.5 1.3 0.5 1.7 0.9 1.1 0.9 -0.7 0.1 -1.3 0.8 -1.3 1.6 0 2.3 -6.9 9.4 -11.4 11.7 -2.3 1.2 -6.3 2.7 -9.1 3.3 l-5 1.1 -0.6 7 -0.6 6.9 0.1 -7.5z"/>
  <path d="M69.5 100 c-1.8 -0.8 -1.7 -0.9 0.8 -0.9 1.5 -0.1 2.7 0.4 2.7 0.9 0 1.2 -0.8 1.2 -3.5 0z"/>
  <path d="M53 80.9 c0 -0.6 0.7 -1.7 1.5 -2.5 1.3 -1.4 1.5 -1.4 1.5 0 0 0.9 0.5 1.6 1 1.6 0.6 0 1 0.5 1 1 0 0.6 -1.1 1 -2.5 1 -1.4 0 -2.5 -0.5 -2.5 -1.1z"/>
  <path d="M51.8 75.3 c1.2 -0.2 3.2 -0.2 4.5 0 1.2 0.2 0.2 0.4 -2.3 0.4 -2.5 0 -3.5 -0.2 -2.2 -0.4z"/>
  <path d="M71.3 33.5 c-4.1 -1.8 -4.1 -3.5 -0.2 -9.1 3.4 -4.6 5.1 -4.8 4.9 -0.6 -0.4 5.9 0 8.2 1.5 8.2 0.8 0 1.5 0.7 1.5 1.5 0 1.9 -3.4 1.9 -7.7 0z"/>
  <path d="M47.5 20.9 c-0.4 -0.6 -0.5 -1.3 -0.2 -1.6 0.7 -0.7 2.7 0.6 2.7 1.8 0 1.2 -1.7 1.2 -2.5 -0.2z"/>
 </g>
</svg>